<svg xmlns="http://www.w3.org/2000/svg" width="24" height="24" viewBox="0 0 24 24" fill="none">
  <path d="M12 6.5C15.79 6.5 19.17 8.63 20.82 12C20.23 13.42 19.29 14.68 18.11 15.69L19.23 16.81C20.72 15.53 21.89 13.86 22.61 12C20.73 7.61 16.69 4.5 12 4.5C10.68 4.5 9.41 4.74 8.21 5.18L9.66 6.63C10.41 6.53 11.19 6.5 12 6.5ZM2 3.27L4.28 5.55L4.74 6.01C3.08 7.3 1.78 9.13 1 11.27C2.73 15.66 7 18.77 12 18.77C13.55 18.77 15.03 18.47 16.38 17.92L16.8 18.34L19.73 21.27L21 20L3.27 2.27L2 3.27ZM7.53 8.8L9.08 10.35C9.03 10.56 9 10.78 9 11C9 12.66 10.34 14 12 14C12.22 14 12.44 13.97 12.65 13.92L14.2 15.47C13.53 15.8 12.79 16 12 16C9.24 16 7 13.76 7 11C7 10.21 7.2 9.47 7.53 8.8ZM11.84 8.02L14.99 11.17L15.01 11.01C15.01 9.35 13.67 8.01 12.01 8.01L11.84 8.02Z" fill="currentColor"/>
</svg> 